<?xml version="1.0" encoding="UTF-8"?>
<svg preserveAspectRatio="none" version="1.1" viewBox="0 0 600 1400" xmlns="http://www.w3.org/2000/svg">
<g fill="none" mask="url(#b)">
<g mask="url(#a)">
<path d="m637.5 712.5h-25-25" stroke="rgba(50, 173, 230, 1)" stroke-width="4.17"/>
<path d="m581.25 712.5a6.25 6.25 0 1 0 12.5 0 6.25 6.25 0 1 0 -12.5 0z" fill="rgba(50, 173, 230, 1)"/>
<path d="m562.5 687.5l-25 25h-25m125-25h-25-25-25-25-25" stroke="rgba(50, 173, 230, 1)" stroke-width="4.17"/>
<path d="m506.25 687.5a6.25 6.25 0 1 0 12.5 0 6.25 6.25 0 1 0 -12.5 0zm0 25a6.25 6.25 0 1 0 12.5 0 6.25 6.25 0 1 0 -12.5 0z" fill="rgba(50, 173, 230, 1)"/>
<path d="m487.5 737.5l-25-25m-150 25h-25-25l-25-25h-25m425 25h-25-25-25-25-25-25-25-25-25-25-25-25-25l-25-25" stroke="rgba(50, 173, 230, 1)" stroke-width="4.17"/>
<path d="m281.25 712.5a6.25 6.25 0 1 0 12.5 0 6.25 6.25 0 1 0 -12.5 0zm175 0a6.25 6.25 0 1 0 12.5 0 6.25 6.25 0 1 0 -12.5 0zm-250 0a6.25 6.25 0 1 0 12.5 0 6.25 6.25 0 1 0 -12.5 0z" fill="rgba(50, 173, 230, 1)"/>
<path d="m337.5 712.5l-25-25-25-25h-25l-25 25m300-25l-25-25h-25m75 25l-25-25m-75 50h-25-25-25-25m275-25h-25-25-25-25-25l-25 25h-25l-25 25h-25-25-25-25-25l-25-25h-25" stroke="rgba(50, 173, 230, 1)" stroke-width="4.17"/>
<path d="m256.25 687.5a6.25 6.25 0 1 0 12.5 0 6.25 6.25 0 1 0 -12.5 0zm-25 0a6.25 6.25 0 1 0 12.5 0 6.25 6.25 0 1 0 -12.5 0zm250-50a6.25 6.25 0 1 0 12.5 0 6.25 6.25 0 1 0 -12.5 0zm50 0a6.25 6.25 0 1 0 12.5 0 6.25 6.25 0 1 0 -12.5 0zm-175 50a6.25 6.25 0 1 0 12.5 0 6.25 6.25 0 1 0 -12.5 0z" fill="rgba(50, 173, 230, 1)"/>
<path d="m212.5 737.5l-25 25h-25l-25-25m200 25l-25 25h-25-25m0-25h-25-25m425 0h-25-25-25-25-25-25-25-25-25-25-25-25-25-25-25l-25-25h-25-25" stroke="rgba(50, 173, 230, 1)" stroke-width="4.17"/>
<path d="m181.25 737.5a6.25 6.25 0 1 0 12.5 0 6.25 6.25 0 1 0 -12.5 0zm-50 0a6.25 6.25 0 1 0 12.5 0 6.25 6.25 0 1 0 -12.5 0zm125 50a6.25 6.25 0 1 0 12.5 0 6.25 6.25 0 1 0 -12.5 0zm-50-25a6.25 6.25 0 1 0 12.5 0 6.25 6.25 0 1 0 -12.5 0z" fill="rgba(50, 173, 230, 1)"/>
<path d="m587.5 637.5h-25m-125-25l-25 25m225 0h-25-25l-25-25h-25-25-25-25-25-25-25" stroke="rgba(50, 173, 230, 1)" stroke-width="4.17"/>
<path d="m381.25 612.5a6.25 6.25 0 1 0 12.5 0 6.25 6.25 0 1 0 -12.5 0zm175 25a6.25 6.25 0 1 0 12.5 0 6.25 6.25 0 1 0 -12.5 0zm-150 0a6.25 6.25 0 1 0 12.5 0 6.25 6.25 0 1 0 -12.5 0z" fill="rgba(50, 173, 230, 1)"/>
<path d="m362.5 812.5l-25-25m0 25l-25 25h-25-25-25m-50-50l-25 25m75-25l-25 25-25 25h-25-25-25l-25 25m550-75h-25-25-25-25-25-25-25-25-25-25l-25 25h-25-25-25-25l-25-25h-25-25-25" stroke="rgba(50, 173, 230, 1)" stroke-width="4.17"/>
<path d="m156.25 787.5a6.25 6.25 0 1 0 12.5 0 6.25 6.25 0 1 0 -12.5 0zm175 0a6.25 6.25 0 1 0 12.5 0 6.25 6.25 0 1 0 -12.5 0zm-100 50a6.25 6.25 0 1 0 12.5 0 6.25 6.25 0 1 0 -12.5 0zm-75-25a6.25 6.25 0 1 0 12.5 0 6.25 6.25 0 1 0 -12.5 0zm-75 50a6.25 6.25 0 1 0 12.5 0 6.25 6.25 0 1 0 -12.5 0z" fill="rgba(50, 173, 230, 1)"/>
<path d="m637.5 612.5h-25-25l-25-25h-25-25-25-25-25-25-25" stroke="rgba(50, 173, 230, 1)" stroke-width="4.17"/>
<path d="m381.25 587.5a6.25 6.25 0 1 0 12.5 0 6.25 6.25 0 1 0 -12.5 0z" fill="rgba(50, 173, 230, 1)"/>
<path d="m462.5 812.5l-25 25h-25-25l-25 25m275-50h-25-25-25-25-25-25-25-25-25-25l-25 25" stroke="rgba(50, 173, 230, 1)" stroke-width="4.17"/>
<path d="m356.25 837.5a6.25 6.25 0 1 0 12.5 0 6.25 6.25 0 1 0 -12.5 0zm0 25a6.25 6.25 0 1 0 12.5 0 6.25 6.25 0 1 0 -12.5 0z" fill="rgba(50, 173, 230, 1)"/>
<path d="m287.5 537.5l-25 25h-25m25-25h-25-25m-25-25l-25 25h-25-25-25m250 0l-25 25h-25l-25 25-25 25m-150-100l-25-25m325 75h-25-25l-25 25h-25l-25 25-25 25h-25-25-25m475-50h-25-25l-25-25h-25-25-25-25-25-25-25l-25-25h-25-25-25-25l-25-25h-25-25-25-25-25-25-25" stroke="rgba(50, 173, 230, 1)" stroke-width="4.17"/>
<path d="m56.25 512.5a6.25 6.25 0 1 0 12.5 0 6.25 6.25 0 1 0 -12.5 0zm175 50a6.25 6.25 0 1 0 12.5 0 6.25 6.25 0 1 0 -12.5 0zm-25-25a6.25 6.25 0 1 0 12.5 0 6.25 6.25 0 1 0 -12.5 0zm-125 0a6.25 6.25 0 1 0 12.5 0 6.25 6.25 0 1 0 -12.5 0zm150 75a6.25 6.25 0 1 0 12.5 0 6.25 6.25 0 1 0 -12.5 0zm-175-125a6.25 6.25 0 1 0 12.5 0 6.25 6.25 0 1 0 -12.5 0zm100 150a6.25 6.25 0 1 0 12.5 0 6.25 6.25 0 1 0 -12.5 0z" fill="rgba(50, 173, 230, 1)"/>
<path d="m637.5 837.5h-25-25-25-25-25-25" stroke="rgba(50, 173, 230, 1)" stroke-width="4.17"/>
<path d="m481.25 837.5a6.25 6.25 0 1 0 12.5 0 6.25 6.25 0 1 0 -12.5 0z" fill="rgba(50, 173, 230, 1)"/>
<path d="m337.5 512.5l-25-25-25-25-25-25h-25l-25 25m200 75l-25-25-25-25h-25l-25-25m-150 25l-25-25h-25-25-25m225 50l-25-25-25-25m-50 25l-25-25m475 100h-25-25l-25-25h-25-25-25-25-25-25-25l-25-25h-25-25-25-25l-25-25h-25-25-25-25-25" stroke="rgba(50, 173, 230, 1)" stroke-width="4.17"/>
<path d="m106.25 487.5a6.25 6.25 0 1 0 12.5 0 6.25 6.25 0 1 0 -12.5 0zm100-25a6.25 6.25 0 1 0 12.5 0 6.25 6.25 0 1 0 -12.5 0zm100 0a6.25 6.25 0 1 0 12.5 0 6.25 6.25 0 1 0 -12.5 0zm-250 0a6.25 6.25 0 1 0 12.5 0 6.25 6.25 0 1 0 -12.5 0zm175 0a6.25 6.25 0 1 0 12.5 0 6.25 6.25 0 1 0 -12.5 0zm-75 0a6.25 6.25 0 1 0 12.5 0 6.25 6.25 0 1 0 -12.5 0z" fill="rgba(50, 173, 230, 1)"/>
<path d="m637.5 862.5h-25-25-25-25-25-25" stroke="rgba(50, 173, 230, 1)" stroke-width="4.17"/>
<path d="m481.25 862.5a6.25 6.25 0 1 0 12.5 0 6.25 6.25 0 1 0 -12.5 0z" fill="rgba(50, 173, 230, 1)"/>
<path d="m637.5 537.5h-25l-25-25h-25-25-25" stroke="rgba(50, 173, 230, 1)" stroke-width="4.17"/>
<path d="m506.25 512.5a6.25 6.25 0 1 0 12.5 0 6.25 6.25 0 1 0 -12.5 0z" fill="rgba(50, 173, 230, 1)"/>
<path d="m137.5 862.5l-25 25h-25-25m400 0l-25-25h-25m-100 25l-25 25h-25-25-25-25-25-25m200-25l-25-25m-25 25l-25-25m375 25h-25-25-25-25-25-25-25-25-25-25-25-25-25-25-25l-25-25h-25-25-25-25-25" stroke="rgba(50, 173, 230, 1)" stroke-width="4.17"/>
<path d="m106.25 862.5a6.25 6.25 0 1 0 12.5 0 6.25 6.25 0 1 0 -12.5 0zm-50 25a6.25 6.25 0 1 0 12.5 0 6.25 6.25 0 1 0 -12.5 0zm350-25a6.25 6.25 0 1 0 12.5 0 6.25 6.25 0 1 0 -12.5 0zm-275 50a6.25 6.25 0 1 0 12.5 0 6.25 6.25 0 1 0 -12.5 0zm175-50a6.25 6.25 0 1 0 12.5 0 6.25 6.25 0 1 0 -12.5 0zm-50 0a6.25 6.25 0 1 0 12.5 0 6.25 6.25 0 1 0 -12.5 0z" fill="rgba(50, 173, 230, 1)"/>
<path d="m637.5 512.5h-25l-25-25h-25-25-25-25" stroke="rgba(50, 173, 230, 1)" stroke-width="4.17"/>
<path d="m481.25 487.5a6.25 6.25 0 1 0 12.5 0 6.25 6.25 0 1 0 -12.5 0z" fill="rgba(50, 173, 230, 1)"/>
<path d="m637.5 912.5h-25-25-25-25-25-25-25-25-25-25" stroke="rgba(50, 173, 230, 1)" stroke-width="4.17"/>
<path d="m381.25 912.5a6.25 6.25 0 1 0 12.5 0 6.25 6.25 0 1 0 -12.5 0z" fill="rgba(50, 173, 230, 1)"/>
<path d="m537.5 462.5l-25-25h-25m75 25l-25-25m100 50h-25l-25-25h-25-25-25" stroke="rgba(50, 173, 230, 1)" stroke-width="4.17"/>
<path d="m506.25 462.5a6.25 6.25 0 1 0 12.5 0 6.25 6.25 0 1 0 -12.5 0zm-25-25a6.25 6.25 0 1 0 12.5 0 6.25 6.25 0 1 0 -12.5 0zm50 0a6.25 6.25 0 1 0 12.5 0 6.25 6.25 0 1 0 -12.5 0z" fill="rgba(50, 173, 230, 1)"/>
<path d="m437.5 937.5l-25 25h-25m100-25l-25 25h-25l-25 25m125-50l-25 25m125-25h-25-25-25-25-25-25-25-25-25-25" stroke="rgba(50, 173, 230, 1)" stroke-width="4.17"/>
<path d="m381.25 937.5a6.25 6.25 0 1 0 12.5 0 6.25 6.25 0 1 0 -12.5 0zm0 25a6.25 6.25 0 1 0 12.5 0 6.25 6.25 0 1 0 -12.5 0zm25 25a6.25 6.25 0 1 0 12.5 0 6.25 6.25 0 1 0 -12.5 0zm100-25a6.25 6.25 0 1 0 12.5 0 6.25 6.25 0 1 0 -12.5 0z" fill="rgba(50, 173, 230, 1)"/>
<path d="m162.5 437.5l-25-25m100 0h-25-25-25m175-25h-25-25m200 25h-25-25m-325 25l-25-25h-25m200 0l-25-25h-25m425 75h-25l-25-25-25-25h-25-25-25l-25-25h-25-25-25-25-25l-25 25h-25-25-25l-25 25h-25-25-25-25-25-25" stroke="rgba(50, 173, 230, 1)" stroke-width="4.17"/>
<path d="m56.25 437.5a6.25 6.25 0 1 0 12.5 0 6.25 6.25 0 1 0 -12.5 0zm75-25a6.25 6.25 0 1 0 12.5 0 6.25 6.25 0 1 0 -12.5 0zm25 0a6.25 6.25 0 1 0 12.5 0 6.25 6.25 0 1 0 -12.5 0zm125-25a6.25 6.25 0 1 0 12.5 0 6.25 6.25 0 1 0 -12.5 0zm150 25a6.25 6.25 0 1 0 12.5 0 6.25 6.25 0 1 0 -12.5 0zm-375 0a6.25 6.25 0 1 0 12.5 0 6.25 6.25 0 1 0 -12.5 0zm150-25a6.25 6.25 0 1 0 12.5 0 6.25 6.25 0 1 0 -12.5 0z" fill="rgba(50, 173, 230, 1)"/>
<path d="m637.5 962.5h-25" stroke="rgba(50, 173, 230, 1)" stroke-width="4.17"/>
<path d="m606.25 962.5a6.25 6.25 0 1 0 12.5 0 6.25 6.25 0 1 0 -12.5 0z" fill="rgba(50, 173, 230, 1)"/>
<path d="m637.5 437.5h-25l-25-25-25-25h-25-25-25l-25-25h-25-25-25-25-25" stroke="rgba(50, 173, 230, 1)" stroke-width="4.17"/>
<path d="m331.25 362.5a6.25 6.25 0 1 0 12.5 0 6.25 6.25 0 1 0 -12.5 0z" fill="rgba(50, 173, 230, 1)"/>
<path d="m637.5 987.5h-25l-25 25" stroke="rgba(50, 173, 230, 1)" stroke-width="4.17"/>
<path d="m581.25 1012.5a6.25 6.25 0 1 0 12.5 0 6.25 6.25 0 1 0 -12.5 0z" fill="rgba(50, 173, 230, 1)"/>
<path d="m362.5 337.5h-25m300 75h-25l-25-25-25-25h-25-25-25l-25-25h-25-25-25-25l-25-25" stroke="rgba(50, 173, 230, 1)" stroke-width="4.17"/>
<path d="m331.25 312.5a6.25 6.25 0 1 0 12.5 0 6.25 6.25 0 1 0 -12.5 0zm0 25a6.25 6.25 0 1 0 12.5 0 6.25 6.25 0 1 0 -12.5 0z" fill="rgba(50, 173, 230, 1)"/>
<path d="m462.5 1087.5l-25-25h-25m-75 0l-25 25h-25-25-25m25-25l-25-25m275 25l-25-25h-25-25-25-25-25m275-25h-25l-25 25-25 25h-25-25-25l-25 25h-25-25-25l-25-25h-25-25-25-25-25-25" stroke="rgba(50, 173, 230, 1)" stroke-width="4.17"/>
<path d="m206.25 1062.5a6.25 6.25 0 1 0 12.5 0 6.25 6.25 0 1 0 -12.5 0zm200 0a6.25 6.25 0 1 0 12.5 0 6.25 6.25 0 1 0 -12.5 0zm-175 25a6.25 6.25 0 1 0 12.5 0 6.25 6.25 0 1 0 -12.5 0zm0-50a6.25 6.25 0 1 0 12.5 0 6.25 6.25 0 1 0 -12.5 0zm125 0a6.25 6.25 0 1 0 12.5 0 6.25 6.25 0 1 0 -12.5 0z" fill="rgba(50, 173, 230, 1)"/>
<path d="m337.5 287.5h-25-25-25-25m275 50h-25m-50-25l-25-25h-25m250 100h-25l-25-25-25-25h-25-25l-25-25h-25-25-25-25-25l-25-25-25-25" stroke="rgba(50, 173, 230, 1)" stroke-width="4.17"/>
<path d="m306.25 262.5a6.25 6.25 0 1 0 12.5 0 6.25 6.25 0 1 0 -12.5 0zm-75 25a6.25 6.25 0 1 0 12.5 0 6.25 6.25 0 1 0 -12.5 0zm250 50a6.25 6.25 0 1 0 12.5 0 6.25 6.25 0 1 0 -12.5 0zm-100-50a6.25 6.25 0 1 0 12.5 0 6.25 6.25 0 1 0 -12.5 0z" fill="rgba(50, 173, 230, 1)"/>
<path d="m262.5 1112.5l-25 25h-25-25-25m200-25l-25 25h-25m150-25l-25 25h-25-25m175-50l-25 25-25 25h-25l-25 25m175-125h-25l-25 25-25 25h-25-25-25l-25 25h-25-25-25-25-25-25-25-25-25" stroke="rgba(50, 173, 230, 1)" stroke-width="4.17"/>
<path d="m231.25 1112.5a6.25 6.25 0 1 0 12.5 0 6.25 6.25 0 1 0 -12.5 0zm-75 25a6.25 6.25 0 1 0 12.5 0 6.25 6.25 0 1 0 -12.5 0zm150 0a6.25 6.25 0 1 0 12.5 0 6.25 6.25 0 1 0 -12.5 0zm75 0a6.25 6.25 0 1 0 12.5 0 6.25 6.25 0 1 0 -12.5 0zm75 25a6.25 6.25 0 1 0 12.5 0 6.25 6.25 0 1 0 -12.5 0z" fill="rgba(50, 173, 230, 1)"/>
<path d="m487.5 287.5l-25-25-25-25m100 75l-25-25m50 25l-25-25-25-25h-25m150 100h-25l-25-25-25-25h-25-25l-25-25h-25l-25-25h-25-25l-25 25" stroke="rgba(50, 173, 230, 1)" stroke-width="4.17"/>
<path d="m356.25 287.5a6.25 6.25 0 1 0 12.5 0 6.25 6.25 0 1 0 -12.5 0zm75-50a6.25 6.25 0 1 0 12.5 0 6.25 6.25 0 1 0 -12.5 0zm75 50a6.25 6.25 0 1 0 12.5 0 6.25 6.25 0 1 0 -12.5 0zm-25-25a6.25 6.25 0 1 0 12.5 0 6.25 6.25 0 1 0 -12.5 0z" fill="rgba(50, 173, 230, 1)"/>
</g>
</g>
<defs>
<mask id="b">
<rect width="600" height="1400" fill="#fff"/>
</mask>
<mask id="a">
<rect width="600" height="1400" fill="#fff"/>
<path d="m584.37 712.5a3.13 3.13 0 1 0 6.26 0 3.13 3.13 0 1 0 -6.26 0z"/>
<path d="m509.37 687.5a3.13 3.13 0 1 0 6.26 0 3.13 3.13 0 1 0 -6.26 0zm0 25a3.13 3.13 0 1 0 6.26 0 3.13 3.13 0 1 0 -6.26 0z"/>
<path d="m284.37 712.5a3.13 3.13 0 1 0 6.26 0 3.13 3.13 0 1 0 -6.26 0zm175 0a3.13 3.13 0 1 0 6.26 0 3.13 3.13 0 1 0 -6.26 0zm-250 0a3.13 3.13 0 1 0 6.26 0 3.13 3.13 0 1 0 -6.26 0z"/>
<path d="m259.37 687.5a3.13 3.13 0 1 0 6.26 0 3.13 3.13 0 1 0 -6.26 0zm-25 0a3.13 3.13 0 1 0 6.26 0 3.13 3.13 0 1 0 -6.26 0zm250-50a3.13 3.13 0 1 0 6.26 0 3.13 3.13 0 1 0 -6.26 0zm50 0a3.13 3.13 0 1 0 6.26 0 3.13 3.13 0 1 0 -6.26 0zm-175 50a3.13 3.13 0 1 0 6.26 0 3.13 3.13 0 1 0 -6.26 0z"/>
<path d="m184.37 737.5a3.13 3.13 0 1 0 6.26 0 3.13 3.13 0 1 0 -6.26 0zm-50 0a3.13 3.13 0 1 0 6.26 0 3.13 3.13 0 1 0 -6.26 0zm125 50a3.13 3.13 0 1 0 6.26 0 3.13 3.13 0 1 0 -6.26 0zm-50-25a3.13 3.13 0 1 0 6.26 0 3.13 3.13 0 1 0 -6.26 0z"/>
<path d="m384.37 612.5a3.13 3.13 0 1 0 6.26 0 3.13 3.13 0 1 0 -6.26 0zm175 25a3.13 3.13 0 1 0 6.26 0 3.13 3.13 0 1 0 -6.26 0zm-150 0a3.13 3.13 0 1 0 6.26 0 3.13 3.13 0 1 0 -6.26 0z"/>
<path d="m159.37 787.5a3.13 3.13 0 1 0 6.26 0 3.13 3.13 0 1 0 -6.26 0zm175 0a3.13 3.13 0 1 0 6.26 0 3.13 3.13 0 1 0 -6.26 0zm-100 50a3.13 3.13 0 1 0 6.26 0 3.13 3.13 0 1 0 -6.26 0zm-75-25a3.13 3.13 0 1 0 6.26 0 3.13 3.13 0 1 0 -6.26 0zm-75 50a3.13 3.13 0 1 0 6.26 0 3.13 3.13 0 1 0 -6.26 0z"/>
<path d="m384.37 587.5a3.13 3.13 0 1 0 6.26 0 3.13 3.13 0 1 0 -6.26 0z"/>
<path d="m359.37 837.5a3.13 3.13 0 1 0 6.26 0 3.13 3.13 0 1 0 -6.26 0zm0 25a3.13 3.13 0 1 0 6.26 0 3.13 3.13 0 1 0 -6.26 0z"/>
<path d="m59.37 512.5a3.13 3.13 0 1 0 6.26 0 3.13 3.13 0 1 0 -6.26 0zm175 50a3.13 3.13 0 1 0 6.26 0 3.13 3.13 0 1 0 -6.26 0zm-25-25a3.13 3.13 0 1 0 6.26 0 3.13 3.13 0 1 0 -6.26 0zm-125 0a3.13 3.13 0 1 0 6.26 0 3.13 3.13 0 1 0 -6.26 0zm150 75a3.13 3.13 0 1 0 6.26 0 3.13 3.13 0 1 0 -6.26 0zm-175-125a3.13 3.13 0 1 0 6.26 0 3.13 3.13 0 1 0 -6.26 0zm100 150a3.13 3.13 0 1 0 6.26 0 3.13 3.13 0 1 0 -6.26 0z"/>
<path d="m484.37 837.5a3.13 3.13 0 1 0 6.26 0 3.13 3.13 0 1 0 -6.26 0z"/>
<path d="m109.37 487.5a3.13 3.13 0 1 0 6.26 0 3.13 3.13 0 1 0 -6.26 0zm100-25a3.13 3.13 0 1 0 6.26 0 3.13 3.13 0 1 0 -6.26 0zm100 0a3.13 3.13 0 1 0 6.26 0 3.13 3.13 0 1 0 -6.26 0zm-250 0a3.13 3.13 0 1 0 6.26 0 3.13 3.13 0 1 0 -6.26 0zm175 0a3.13 3.13 0 1 0 6.26 0 3.13 3.13 0 1 0 -6.26 0zm-75 0a3.13 3.13 0 1 0 6.26 0 3.13 3.13 0 1 0 -6.26 0z"/>
<path d="m484.37 862.5a3.13 3.13 0 1 0 6.26 0 3.13 3.13 0 1 0 -6.26 0z"/>
<path d="m509.37 512.5a3.13 3.13 0 1 0 6.26 0 3.13 3.13 0 1 0 -6.26 0z"/>
<path d="m109.37 862.5a3.13 3.13 0 1 0 6.26 0 3.13 3.13 0 1 0 -6.26 0zm-50 25a3.13 3.13 0 1 0 6.26 0 3.13 3.13 0 1 0 -6.26 0zm350-25a3.13 3.13 0 1 0 6.26 0 3.13 3.13 0 1 0 -6.26 0zm-275 50a3.13 3.13 0 1 0 6.26 0 3.13 3.13 0 1 0 -6.26 0zm175-50a3.13 3.13 0 1 0 6.26 0 3.13 3.13 0 1 0 -6.26 0zm-50 0a3.13 3.13 0 1 0 6.26 0 3.13 3.13 0 1 0 -6.26 0z"/>
<path d="m484.37 487.5a3.13 3.13 0 1 0 6.26 0 3.13 3.13 0 1 0 -6.26 0z"/>
<path d="m384.37 912.5a3.13 3.13 0 1 0 6.26 0 3.13 3.13 0 1 0 -6.26 0z"/>
<path d="m509.37 462.5a3.13 3.13 0 1 0 6.26 0 3.13 3.13 0 1 0 -6.26 0zm-25-25a3.13 3.13 0 1 0 6.26 0 3.13 3.13 0 1 0 -6.26 0zm50 0a3.13 3.13 0 1 0 6.26 0 3.13 3.13 0 1 0 -6.26 0z"/>
<path d="m384.37 937.5a3.13 3.13 0 1 0 6.26 0 3.13 3.13 0 1 0 -6.26 0zm0 25a3.13 3.13 0 1 0 6.26 0 3.13 3.13 0 1 0 -6.26 0zm25 25a3.13 3.13 0 1 0 6.26 0 3.13 3.13 0 1 0 -6.26 0zm100-25a3.13 3.13 0 1 0 6.26 0 3.13 3.13 0 1 0 -6.26 0z"/>
<path d="m59.37 437.5a3.13 3.13 0 1 0 6.26 0 3.13 3.13 0 1 0 -6.26 0zm75-25a3.13 3.13 0 1 0 6.26 0 3.13 3.13 0 1 0 -6.26 0zm25 0a3.13 3.13 0 1 0 6.26 0 3.13 3.13 0 1 0 -6.26 0zm125-25a3.13 3.13 0 1 0 6.26 0 3.13 3.13 0 1 0 -6.26 0zm150 25a3.13 3.13 0 1 0 6.26 0 3.13 3.13 0 1 0 -6.26 0zm-375 0a3.13 3.13 0 1 0 6.26 0 3.13 3.13 0 1 0 -6.26 0zm150-25a3.13 3.13 0 1 0 6.26 0 3.13 3.13 0 1 0 -6.26 0z"/>
<path d="m609.37 962.5a3.13 3.13 0 1 0 6.26 0 3.13 3.13 0 1 0 -6.26 0z"/>
<path d="m334.37 362.5a3.13 3.13 0 1 0 6.26 0 3.13 3.13 0 1 0 -6.26 0z"/>
<path d="m584.37 1012.5a3.13 3.13 0 1 0 6.26 0 3.13 3.13 0 1 0 -6.26 0z"/>
<path d="m334.37 312.5a3.13 3.13 0 1 0 6.26 0 3.13 3.13 0 1 0 -6.26 0zm0 25a3.13 3.13 0 1 0 6.26 0 3.13 3.13 0 1 0 -6.26 0z"/>
<path d="m209.37 1062.5a3.13 3.13 0 1 0 6.26 0 3.13 3.13 0 1 0 -6.26 0zm200 0a3.13 3.13 0 1 0 6.26 0 3.13 3.13 0 1 0 -6.26 0zm-175 25a3.13 3.13 0 1 0 6.26 0 3.13 3.13 0 1 0 -6.26 0zm0-50a3.13 3.13 0 1 0 6.26 0 3.13 3.13 0 1 0 -6.26 0zm125 0a3.13 3.13 0 1 0 6.26 0 3.13 3.13 0 1 0 -6.26 0z"/>
<path d="m309.37 262.5a3.13 3.13 0 1 0 6.26 0 3.13 3.13 0 1 0 -6.26 0zm-75 25a3.13 3.13 0 1 0 6.26 0 3.13 3.13 0 1 0 -6.26 0zm250 50a3.13 3.13 0 1 0 6.26 0 3.13 3.13 0 1 0 -6.26 0zm-100-50a3.13 3.13 0 1 0 6.26 0 3.13 3.13 0 1 0 -6.26 0z"/>
<path d="m234.37 1112.5a3.13 3.13 0 1 0 6.26 0 3.13 3.13 0 1 0 -6.26 0zm-75 25a3.13 3.13 0 1 0 6.26 0 3.13 3.13 0 1 0 -6.26 0zm150 0a3.13 3.13 0 1 0 6.26 0 3.13 3.13 0 1 0 -6.26 0zm75 0a3.13 3.13 0 1 0 6.26 0 3.13 3.13 0 1 0 -6.26 0zm75 25a3.13 3.13 0 1 0 6.26 0 3.13 3.13 0 1 0 -6.26 0z"/>
<path d="m359.37 287.5a3.13 3.13 0 1 0 6.26 0 3.13 3.13 0 1 0 -6.26 0zm75-50a3.13 3.13 0 1 0 6.26 0 3.13 3.13 0 1 0 -6.26 0zm75 50a3.13 3.13 0 1 0 6.26 0 3.13 3.13 0 1 0 -6.26 0zm-25-25a3.13 3.13 0 1 0 6.26 0 3.13 3.13 0 1 0 -6.26 0z"/>
</mask>
</defs>
</svg>
