<?xml version="1.0" standalone="no"?>
<!DOCTYPE svg PUBLIC "-//W3C//DTD SVG 20010904//EN"
 "http://www.w3.org/TR/2001/REC-SVG-20010904/DTD/svg10.dtd">
<svg version="1.0" xmlns="http://www.w3.org/2000/svg"
 width="398.000000pt" height="398.000000pt" viewBox="0 0 398.000000 398.000000"
 preserveAspectRatio="xMidYMid meet">

<g transform="translate(0.000000,398.000000) scale(0.100000,-0.100000)"
fill="#000000" stroke="none">
<path d="M1990 3196 c0 -4 7 -21 16 -37 15 -29 14 -31 -3 -25 -93 27 -183 39
-202 27 -12 -8 -8 -15 17 -36 18 -15 29 -31 26 -37 -11 -17 -117 -4 -162 20
-24 12 -45 22 -47 22 -3 0 -5 -18 -5 -40 l0 -41 -37 3 c-34 3 -38 1 -35 -19 2
-17 -3 -22 -35 -28 -66 -11 -159 -75 -109 -75 9 0 -1 -16 -28 -40 -24 -22 -47
-40 -51 -40 -27 0 -70 -52 -110 -134 -25 -50 -45 -98 -45 -106 0 -7 -11 -42
-25 -77 -38 -94 -50 -241 -36 -460 6 -98 14 -195 17 -215 l6 -36 -39 5 c-58 8
-100 -18 -125 -74 -18 -40 -20 -61 -16 -147 7 -137 35 -215 112 -319 50 -68
68 -84 102 -95 41 -13 42 -15 54 -75 26 -134 89 -246 199 -352 69 -68 200
-164 251 -185 36 -15 30 -31 -8 -24 -38 7 -544 -71 -581 -90 -40 -21 -48 -36
-26 -52 14 -11 21 -10 40 2 13 8 122 30 251 50 126 19 239 36 252 39 18 4 22
1 22 -19 0 -89 94 -174 229 -206 119 -28 292 7 368 73 38 34 72 97 73 135 0
18 4 21 23 17 21 -4 299 -47 402 -61 28 -4 67 -13 88 -22 34 -13 40 -13 53 0
13 13 13 17 -8 30 -13 8 -39 20 -58 27 -43 14 -432 72 -515 76 -33 2 -62 4
-65 4 -3 1 19 14 47 30 237 130 393 321 433 528 12 61 14 63 51 73 71 19 177
180 204 307 21 98 19 208 -4 260 -29 62 -99 91 -153 62 -19 -10 -20 -9 -15 12
17 70 29 258 24 374 -9 185 -49 337 -108 410 -14 17 -31 43 -39 58 -13 27 -60
74 -92 94 -8 4 -27 25 -44 46 -35 46 -130 120 -199 154 -28 15 -77 55 -111 92
-34 36 -86 80 -115 98 -53 32 -109 51 -109 39z m-255 -778 c212 -23 234 -22
568 13 118 12 174 5 234 -32 37 -23 74 -93 79 -152 2 -23 6 -58 9 -77 3 -19 6
-49 8 -67 2 -19 13 -42 28 -56 15 -13 28 -30 31 -38 3 -8 16 -13 31 -11 31 2
31 2 16 -88 -5 -36 -14 -162 -19 -280 -7 -185 -14 -239 -44 -386 -39 -187 -59
-248 -109 -327 -71 -111 -255 -259 -387 -313 -114 -46 -303 -48 -421 -4 -126
48 -318 201 -393 315 -52 78 -73 139 -112 329 -28 138 -36 209 -44 366 -5 107
-14 224 -20 260 -12 82 -13 123 -1 115 6 -3 16 2 23 11 7 9 28 31 46 50 29 32
45 73 22 59 -11 -7 -2 23 12 42 5 7 7 21 3 33 -4 12 -1 28 6 36 9 11 9 18 2
22 -17 11 23 106 58 142 30 30 101 58 149 59 14 1 115 -9 225 -21z m-606 -655
c14 -12 23 -35 28 -67 l6 -50 -46 48 c-27 28 -50 45 -57 41 -8 -5 0 -17 21
-34 l33 -28 -18 -57 c-12 -36 -16 -69 -12 -91 8 -42 24 -55 18 -15 -5 34 4 88
18 110 17 27 39 -18 40 -80 0 -30 5 -86 10 -124 6 -38 9 -71 6 -73 -2 -2 -18
9 -37 24 l-33 28 19 -28 c10 -16 29 -33 41 -37 16 -6 25 -21 30 -45 13 -70
-18 -60 -81 27 -26 35 -55 81 -65 104 -56 128 -55 334 2 357 26 11 56 6 77
-10z m1760 -2 c11 -11 23 -36 27 -57 9 -51 -1 -179 -21 -241 -27 -89 -140
-242 -162 -219 -3 2 -2 23 2 44 5 31 12 42 29 46 13 3 32 18 42 33 l18 28 -33
-28 c-19 -15 -35 -26 -37 -24 -3 2 0 35 6 73 5 38 10 94 10 124 0 30 7 63 14
73 12 16 14 16 27 1 8 -9 13 -41 14 -75 0 -34 4 -54 9 -49 14 14 12 91 -4 139
l-14 44 33 27 c21 18 29 30 21 35 -7 4 -30 -12 -56 -39 l-44 -46 0 40 c0 74
73 117 119 71z m-1005 -1242 c75 -11 193 -3 264 17 16 5 22 2 22 -9 0 -11 12
-17 37 -19 41 -3 50 -19 39 -63 -8 -33 -62 -84 -115 -108 -38 -18 -66 -21
-166 -22 -112 0 -124 2 -178 28 -60 30 -101 73 -113 121 -8 34 6 46 54 46 23
0 32 5 32 16 0 12 6 15 23 10 12 -3 57 -11 101 -17z M1463 1974 c-40 -15 -114 -78 -134 -116 -7 -13 7 -9 57 19 88 48 166
54 314 23 139 -29 134 -29 138 2 4 35 -25 54 -114 73 -87 19 -207 18 -261 -1z
M2201 1975 c-72 -16 -106 -35 -114 -64 -9 -37 13 -40 123 -15 151 35
234 31 329 -18 l71 -36 -20 28 c-33 46 -97 96 -139 108 -51 16 -170 14 -250
-3z M1456 1776 c-53 -20 -87 -46 -110 -86 l-20 -33 50 -44 c107 -95 239
-108 379 -39 51 25 75 43 75 55 0 29 -59 100 -108 128 -39 23 -59 28 -137 30
-61 2 -103 -1 -129 -11z m44 -45 c-5 -11 -10 -36 -10 -56 0 -86 108 -129 172
-68 30 28 40 66 27 100 -15 40 40 19 83 -32 26 -30 22 -51 -14 -73 -123 -76
-290 -62 -362 30 l-26 33 29 28 c21 22 80 52 109 57 1 0 -2 -9 -8 -19z m98 -7
c4 -27 -26 -40 -46 -20 -21 20 -8 48 20 44 14 -2 24 -11 26 -24z M2246 1776 c-52 -20 -103 -63 -133 -113 l-24 -42 53 -31 c153 -88
307 -77 420 31 l40 38 -19 33 c-10 18 -41 46 -67 62 -43 27 -58 31 -140 33
-61 2 -104 -1 -130 -11z m100 -41 c7 -18 -13 -45 -33 -45 -17 0 -27 24 -19 45
7 20 45 19 52 0z m144 -10 c14 -7 34 -23 45 -35 18 -20 18 -24 4 -48 -23 -41
-98 -82 -162 -89 -64 -6 -176 23 -220 58 -27 20 -27 21 -10 50 16 27 69 69 87
69 3 0 4 -17 1 -37 -15 -99 107 -155 179 -83 22 21 28 89 12 124 -8 16 -6 17
15 11 13 -4 35 -13 49 -20z M2058 1687 c-19 -46 -4 -235 21 -260 7 -7 8 -4 5 9 -3 11 -8 76 -12
144 -4 72 -10 117 -14 107z M1778 1264 c-10 -21 -9 -31 3 -52 13 -23 22 -27 60 -27 35 0 53 -6
78 -27 41 -35 52 -35 96 3 30 27 40 30 71 25 22 -5 41 -3 50 5 16 13 18 67 3
89 -8 12 -9 9 -5 -13 11 -46 -7 -66 -54 -60 -34 5 -44 1 -75 -26 -20 -17 -37
-31 -39 -31 -2 0 -21 14 -42 31 -32 25 -45 30 -84 27 l-45 -3 0 43 c0 23 -1
42 -3 42 -1 0 -8 -12 -14 -26z M2254 1026 c-8 -21 -172 -48 -294 -48 -116 0 -227 16 -279 40 -24 11
-38 13 -50 5 -29 -18 -18 -38 24 -44 22 -4 85 -14 140 -23 55 -9 129 -16 165
-16 36 0 110 7 165 16 55 9 118 19 139 23 45 7 54 21 31 45 -20 20 -34 20 -41
2z M1874 858 c24 -14 142 -14 176 0 20 8 1 11 -85 11 -86 0 -106 -2 -91
-11z"/>




</g>
</svg>
